<svg xmlns="http://www.w3.org/2000/svg" style="display:none">
  <!-- OpenStation UI icons. 24x24 grid, 1.5 monoline, currentColor.
       Use: <svg class="os-icon"><use href="openstation-icons.svg#os-window"/></svg> -->
  <symbol id="os-window" viewBox="0 0 24 24" fill="none" stroke="currentColor" stroke-width="1.5" stroke-linecap="round" stroke-linejoin="round">
    <title>window</title>
    <rect x="3" y="4.5" width="18" height="15" rx="2"/>
    <path d="M3 9.5h18"/>
    <circle cx="6.6" cy="7" r="0.85" fill="currentColor" stroke="none"/>
  </symbol>
  <symbol id="os-windows" viewBox="0 0 24 24" fill="none" stroke="currentColor" stroke-width="1.5" stroke-linecap="round" stroke-linejoin="round">
    <title>windows</title>
    <rect x="2.5" y="8" width="13" height="11.5" rx="2"/>
    <path d="M2.5 12h13"/>
    <path d="M8 8V7a2 2 0 0 1 2.5-2.5h8A2 2 0 0 1 21 7v7a2 2 0 0 1-2.5 2.5h-3"/>
  </symbol>
  <symbol id="os-dock" viewBox="0 0 24 24" fill="none" stroke="currentColor" stroke-width="1.5" stroke-linecap="round" stroke-linejoin="round">
    <title>dock</title>
    <rect x="2" y="8" width="20" height="8" rx="2"/>
    <circle cx="7" cy="12" r="1.15" fill="currentColor" stroke="none"/>
    <circle cx="12" cy="12" r="1.15" fill="currentColor" stroke="none"/>
    <circle cx="17" cy="12" r="1.15" fill="currentColor" stroke="none"/>
  </symbol>
  <symbol id="os-spaces" viewBox="0 0 24 24" fill="none" stroke="currentColor" stroke-width="1.5" stroke-linecap="round" stroke-linejoin="round">
    <title>spaces</title>
    <rect x="2.5" y="4.5" width="8.5" height="9" rx="2"/>
    <rect x="13" y="4.5" width="8.5" height="9" rx="2"/>
    <circle cx="9" cy="18.5" r="0.9" fill="currentColor" stroke="none"/>
    <circle cx="12" cy="18.5" r="0.9" fill="currentColor" stroke="none"/>
    <circle cx="15" cy="18.5" r="0.9" fill="currentColor" stroke="none"/>
  </symbol>
  <symbol id="os-apps" viewBox="0 0 24 24" fill="none" stroke="currentColor" stroke-width="1.5" stroke-linecap="round" stroke-linejoin="round">
    <title>apps</title>
    <rect x="3" y="3" width="7.5" height="7.5" rx="2"/>
    <rect x="13.5" y="3" width="7.5" height="7.5" rx="2"/>
    <rect x="3" y="13.5" width="7.5" height="7.5" rx="2"/>
    <rect x="13.5" y="13.5" width="7.5" height="7.5" rx="2"/>
  </symbol>
  <symbol id="os-palette" viewBox="0 0 24 24" fill="none" stroke="currentColor" stroke-width="1.5" stroke-linecap="round" stroke-linejoin="round">
    <title>palette</title>
    <rect x="2.5" y="4.5" width="19" height="15" rx="3"/>
    <path d="M2.5 10h19"/>
    <path d="M5.9 6.15 7.2 7.3 5.9 8.45"/>
    <path d="M9.4 8.45h4.6"/>
    <path d="M6 13.5h9"/>
    <path d="M6 16.5h5.5"/>
  </symbol>
  <symbol id="os-widgets" viewBox="0 0 24 24" fill="none" stroke="currentColor" stroke-width="1.5" stroke-linecap="round" stroke-linejoin="round">
    <title>widgets</title>
    <rect x="2.5" y="2.5" width="11" height="11" rx="2"/>
    <rect x="15.5" y="2.5" width="6" height="6" rx="2"/>
    <rect x="15.5" y="10.5" width="6" height="11" rx="2"/>
    <rect x="2.5" y="15.5" width="11" height="6" rx="2"/>
  </symbol>
  <symbol id="os-wallpaper" viewBox="0 0 24 24" fill="none" stroke="currentColor" stroke-width="1.5" stroke-linecap="round" stroke-linejoin="round">
    <title>wallpaper</title>
    <rect x="2.5" y="4" width="19" height="16" rx="2.5"/>
    <circle cx="8" cy="8.6" r="1.6"/>
    <path d="M2.5 17.6 8.2 11.4a2 2 0 0 1 2.9 0l6.4 7"/>
    <path d="M14.2 15.4 15.9 13.6a2 2 0 0 1 2.8 0l2.6 2.6"/>
  </symbol>
  <symbol id="os-copilot" viewBox="0 0 24 24" fill="none" stroke="currentColor" stroke-width="1.5" stroke-linecap="round" stroke-linejoin="round">
    <title>copilot</title>
    <path d="M10 2.5Q10.9 8.5 17.5 10Q10.9 11.5 10 17.5Q9.1 11.5 2.5 10Q9.1 8.5 10 2.5Z" fill="currentColor" stroke="none"/>
    <path d="M17.9 14Q18.35 17.1 21.5 17.6Q18.35 18.1 17.9 21.2Q17.45 18.1 14.3 17.6Q17.45 17.1 17.9 14Z" fill="currentColor" stroke="none"/>
  </symbol>
  <symbol id="os-close" viewBox="0 0 24 24" fill="none" stroke="currentColor" stroke-width="1.5" stroke-linecap="round" stroke-linejoin="round">
    <title>close</title>
    <path d="M6.75 6.75 17.25 17.25"/>
    <path d="M17.25 6.75 6.75 17.25"/>
  </symbol>
  <symbol id="os-minimize" viewBox="0 0 24 24" fill="none" stroke="currentColor" stroke-width="1.5" stroke-linecap="round" stroke-linejoin="round">
    <title>minimize</title>
    <path d="M6 12h12"/>
  </symbol>
  <symbol id="os-maximize" viewBox="0 0 24 24" fill="none" stroke="currentColor" stroke-width="1.5" stroke-linecap="round" stroke-linejoin="round">
    <title>maximize</title>
    <path d="M4 9.5V6.5A2.5 2.5 0 0 1 6.5 4h3"/>
    <path d="M14.5 4h3A2.5 2.5 0 0 1 20 6.5v3"/>
    <path d="M20 14.5v3a2.5 2.5 0 0 1-2.5 2.5h-3"/>
    <path d="M9.5 20h-3A2.5 2.5 0 0 1 4 17.5v-3"/>
  </symbol>
  <symbol id="os-snap" viewBox="0 0 24 24" fill="none" stroke="currentColor" stroke-width="1.5" stroke-linecap="round" stroke-linejoin="round">
    <title>snap</title>
    <rect x="2.5" y="4.5" width="19" height="15" rx="2"/>
    <path d="M12 4.5v15"/>
    <path d="M12 12h9.5"/>
  </symbol>
  <symbol id="os-pin" viewBox="0 0 24 24" fill="none" stroke="currentColor" stroke-width="1.5" stroke-linecap="round" stroke-linejoin="round">
    <title>pin</title>
    <path d="M8.5 3h7"/>
    <path d="M10 3v5.5a2 2 0 0 1-.8 1.6l-1.6 1.2a2 2 0 0 0-.8 1.6v.6a.5.5 0 0 0 .5.5h9.4a.5.5 0 0 0 .5-.5v-.6a2 2 0 0 0-.8-1.6l-1.6-1.2a2 2 0 0 1-.8-1.6V3"/>
    <path d="M12 14v6.5"/>
  </symbol>
  <symbol id="os-search" viewBox="0 0 24 24" fill="none" stroke="currentColor" stroke-width="1.5" stroke-linecap="round" stroke-linejoin="round">
    <title>search</title>
    <circle cx="10.5" cy="10.5" r="6.5"/>
    <path d="M15.4 15.4 20.5 20.5"/>
  </symbol>
  <symbol id="os-chevron-right" viewBox="0 0 24 24" fill="none" stroke="currentColor" stroke-width="1.5" stroke-linecap="round" stroke-linejoin="round">
    <title>chevron-right</title>
    <path d="M9.75 5.5 16.25 12l-6.5 6.5"/>
  </symbol>
  <symbol id="os-arrow-up-right" viewBox="0 0 24 24" fill="none" stroke="currentColor" stroke-width="1.5" stroke-linecap="round" stroke-linejoin="round">
    <title>arrow-up-right</title>
    <path d="M7 17 17 7"/>
    <path d="M8.75 7H17v8.25"/>
  </symbol>
  <symbol id="os-more" viewBox="0 0 24 24" fill="none" stroke="currentColor" stroke-width="1.5" stroke-linecap="round" stroke-linejoin="round">
    <title>more</title>
    <circle cx="5.75" cy="12" r="1.1" fill="currentColor" stroke="none"/>
    <circle cx="12" cy="12" r="1.1" fill="currentColor" stroke="none"/>
    <circle cx="18.25" cy="12" r="1.1" fill="currentColor" stroke="none"/>
  </symbol>
  <symbol id="os-command" viewBox="0 0 24 24" fill="none" stroke="currentColor" stroke-width="1.5" stroke-linecap="round" stroke-linejoin="round">
    <title>command</title>
    <path d="M15 6v12a3 3 0 1 0 3-3H6a3 3 0 1 0 3 3V6a3 3 0 1 0-3 3h12a3 3 0 1 0-3-3"/>
  </symbol>
  <symbol id="os-plus" viewBox="0 0 24 24" fill="none" stroke="currentColor" stroke-width="1.5" stroke-linecap="round" stroke-linejoin="round">
    <title>plus</title>
    <path d="M12 5.5v13"/>
    <path d="M5.5 12h13"/>
  </symbol>
  <symbol id="os-check" viewBox="0 0 24 24" fill="none" stroke="currentColor" stroke-width="1.5" stroke-linecap="round" stroke-linejoin="round">
    <title>check</title>
    <path d="M5 12.5 9.75 17.25 19 6.75"/>
  </symbol>
  <symbol id="os-edit" viewBox="0 0 24 24" fill="none" stroke="currentColor" stroke-width="1.5" stroke-linecap="round" stroke-linejoin="round">
    <title>edit</title>
    <path d="M16.4 4.6a2.15 2.15 0 0 1 3 3L8.4 18.6l-4.4 1.4 1.4-4.4z"/>
    <path d="M14.4 6.6 17.4 9.6"/>
  </symbol>
  <symbol id="os-trash" viewBox="0 0 24 24" fill="none" stroke="currentColor" stroke-width="1.5" stroke-linecap="round" stroke-linejoin="round">
    <title>trash</title>
    <path d="M4 6.5h16"/>
    <path d="M9.5 6.5V5a1.5 1.5 0 0 1 1.5-1.5h2A1.5 1.5 0 0 1 14.5 5v1.5"/>
    <path d="M6.5 6.5v12a2 2 0 0 0 2 2h7a2 2 0 0 0 2-2v-12"/>
    <path d="M10.5 10.5v5.5"/>
    <path d="M13.5 10.5v5.5"/>
  </symbol>
  <symbol id="os-download" viewBox="0 0 24 24" fill="none" stroke="currentColor" stroke-width="1.5" stroke-linecap="round" stroke-linejoin="round">
    <title>download</title>
    <path d="M12 3.5v11"/>
    <path d="M7.5 10 12 14.5 16.5 10"/>
    <path d="M4.5 17v2a1.5 1.5 0 0 0 1.5 1.5h12a1.5 1.5 0 0 0 1.5-1.5v-2"/>
  </symbol>
  <symbol id="os-settings" viewBox="0 0 24 24" fill="none" stroke="currentColor" stroke-width="1.5" stroke-linecap="round" stroke-linejoin="round">
    <title>settings</title>
    <path d="M4 7.5h9"/>
    <path d="M17 7.5h3"/>
    <circle cx="15" cy="7.5" r="2"/>
    <path d="M4 16.5h3"/>
    <path d="M11 16.5h9"/>
    <circle cx="9" cy="16.5" r="2"/>
  </symbol>
  <symbol id="os-info" viewBox="0 0 24 24" fill="none" stroke="currentColor" stroke-width="1.5" stroke-linecap="round" stroke-linejoin="round">
    <title>info</title>
    <circle cx="12" cy="12" r="9"/>
    <path d="M12 11.25v5"/>
    <circle cx="12" cy="7.9" r="0.9" fill="currentColor" stroke="none"/>
  </symbol>
  <symbol id="os-warning" viewBox="0 0 24 24" fill="none" stroke="currentColor" stroke-width="1.5" stroke-linecap="round" stroke-linejoin="round">
    <title>warning</title>
    <path d="M10.3 4.3 2.7 17.4a2 2 0 0 0 1.7 3h15.2a2 2 0 0 0 1.7-3L13.7 4.3a2 2 0 0 0-3.4 0z"/>
    <path d="M12 9.5v4"/>
    <circle cx="12" cy="16.9" r="0.9" fill="currentColor" stroke="none"/>
  </symbol>
  <symbol id="os-bell" viewBox="0 0 24 24" fill="none" stroke="currentColor" stroke-width="1.5" stroke-linecap="round" stroke-linejoin="round">
    <title>bell</title>
    <path d="M18 9a6 6 0 0 0-12 0c0 5.2-2 6.5-2 6.5h16S18 14.2 18 9z"/>
    <path d="M10.3 18.5a2 2 0 0 0 3.4 0"/>
  </symbol>
  <symbol id="os-user" viewBox="0 0 24 24" fill="none" stroke="currentColor" stroke-width="1.5" stroke-linecap="round" stroke-linejoin="round">
    <title>user</title>
    <circle cx="12" cy="8.5" r="4"/>
    <path d="M4.5 20.5a7.5 7.5 0 0 1 15 0"/>
  </symbol>
  <symbol id="os-lock" viewBox="0 0 24 24" fill="none" stroke="currentColor" stroke-width="1.5" stroke-linecap="round" stroke-linejoin="round">
    <title>lock</title>
    <rect x="4.5" y="10.5" width="15" height="10" rx="2"/>
    <path d="M8 10.5V7.5a4 4 0 0 1 8 0v3"/>
  </symbol>
</svg>
